# AST/ASF file generated using VICON BodyLanguage
# -----------------------------------------------
:version 1.10
:name VICON
:units
  mass 1.0
  length 0.45
  angle deg
:documentation
   .ast/.asf automatically generated from VICON data using
   VICON BodyBuilder and BodyLanguage model FoxedUp or BRILLIANT.MOD
:root
   order TX TY TZ RX RY RZ
   axis XYZ
   position 0 0 0  
   orientation 0 -0 0 
:bonedata
  begin
     id 1 
     name lhipjoint
     direction 0.515797 -0.759363 0.396637 
     length 2.47888 
     axis 0 -0 0  XYZ
  end
  begin
     id 2 
     name lfemur
     direction 0.34202 -0.939693 0  
     length 6.81885  
     axis 0 -0 20  XYZ
    dof rx ry rz
    limits (-160.0 20.0)
           (-70.0 70.0)
           (-60.0 70.0)
  end
  begin
     id 3 
     name ltibia
     direction 0.342037 -0.939687 0   
     length 7.89258   
     axis 0 -0 20   XYZ
    dof rx
    limits (-10.0 170.0)
  end
  begin
     id 4 
     name lfoot
     direction 0.173497 -0.476678 0.861787   
     length 2.51543   
     axis -90 -1.13533e-015 20   XYZ
    dof rx rz
    limits (-45.0 90.0)
           (-70.0 20.0)
  end
  begin
     id 5 
     name ltoes
     direction 1.53564e-011 -4.21897e-011 1   
     length 1.21388   
     axis -90 -1.13533e-015 20   XYZ
    dof rx
    limits (-90.0 20.0)
  end
  begin
     id 6 
     name rhipjoint
     direction -0.489454 -0.772941 0.403729   
     length 2.43534  
     axis 0 -0 0  XYZ 
  end
  begin
     id 7 
     name rfemur
     direction -0.34202 -0.939693 0   
     length 7.10357   
     axis 0 -0 -20   XYZ
    dof rx ry rz
    limits (-160.0 20.0)
           (-70.0 70.0)
           (-70.0 60.0)
  end
  begin
     id 8 
     name rtibia
     direction -0.34202 -0.939693 0   
     length 9.16127   
     axis 0 -0 -20   XYZ
    dof rx
    limits (-10.0 170.0)
 end
 begin
     id 9 
     name rfoot
     direction -0.270974 -0.748671 0.605033   
     length 1.74894  
     axis -90 1.13533e-015 -20   XYZ
    dof rx rz
    limits (-45.0 90.0)
           (-20.0 70.0)
  end
  begin
     id 10 
     name rtoes
     direction -1.53557e-011 -4.21759e-011 1   
     length 0.787585   
     axis -90 1.13533e-015 -20   XYZ
    dof rx
    limits (-90.0 20.0)
  end
  begin
     id 11 
     name lowerback
     direction -0.0140249 0.999561 0.0260968   
     length 2.16963   
     axis 0 -0 0   XYZ
    dof rx ry rz
    limits (-20.0 45.0)
           (-30.0 30.0)
           (-30.0 30.0)
  end
  begin
     id 12 
     name upperback
     direction 0.00860018 0.999959 -0.002711   
     length 2.1726   
     axis 0 -0 0   XYZ
    dof rx ry rz
    limits (-20.0 45.0)
           (-30.0 30.0)
           (-30.0 30.0)
  end
  begin
     id 13 
     name thorax
     direction 0.015211 0.999782 -0.0143191   
     length 2.17061   
     axis 0 -0 0   XYZ
    dof rx ry rz
    limits (-20.0 45.0)
           (-30.0 30.0)
           (-30.0 30.0)
  end
  begin
     id 14 
     name lowerneck
     direction -0.0140143 0.999447 0.030145   
     length 2.26749   
     axis 0 -0 0   XYZ
    dof rx ry rz
    limits (-20.0 45.0)
           (-30.0 30.0)
           (-30.0 30.0)
  end
  begin
     id 15 
     name upperneck
     direction 0.118062 0.961438 -0.248392   
     length 2.22728   
     axis 0 -0 0   XYZ
    dof rx ry rz
    limits (-20.0 45.0)
           (-30.0 30.0)
           (-30.0 30.0)
  end
  begin
     id 16
     name head
     direction 0.0431885 0.9954 -0.085514  
     length 2.28786  
     axis 0 -0 0   XYZ
    dof rx ry rz
    limits (-20.0 45.0)
           (-30.0 30.0)
           (-30.0 30.0)
  end
  begin
     id 17 
     name lclavicle
     direction 0.912126 0.409548 0.0172323  
     length 4.31571  
     axis 0 -0 0   XYZ
    dof ry rz
    limits (-20.0 10.0)
           (0.0 20.0)
  end
  begin
     id 18 
     name lhumerus
     direction 1 -4.48977e-011 1.93091e-027   
     length 5.13658   
     axis 180 -30 -90   XYZ
    dof rx ry rz
    limits (-60.0 90.0)
           (-90.0 90.0)
           (-90.0 90.0)
  end
  begin
     id 19
     name lradius
     direction 1 -4.48916e-011 6.84018e-027   
     length 3.22473   
     axis 180 -30 -90   XYZ
    dof rx
    limits (-10.0 170.0)
  end
  begin
     id 20
     name lwrist
     direction 1 -4.48987e-011 7.01981e-027   
     length 1.61236   
     axis -4.37994e-015 90 90   XYZ
    dof ry
    limits (-180.0 0.0)
 end
  begin
     id 21 
     name lhand
     direction 1 -4.49037e-011 1.40335e-026   
     length 0.936406   
     axis -8.96029e-015 90 90   XYZ
    dof rx rz
    limits (-90.0 90.0)
           (-45.0 45.0)
  end
  begin
     id 22 
     name lfingers
     direction 1 -4.48886e-011 2.8104e-026   
     length 0.754955   
     axis -1.79203e-014 90 90   XYZ
    dof rx
    limits (0.0 90.0)
  end
  begin
     id 23
     name lthumb
     direction 0.707107 -6.34937e-011 0.707107   
     length 1.08397   
     axis -90 45 -4.48555e-014   XYZ
    dof rx rz
    limits (-45.0 45.0)
           (-45.0 45.0)
  end
  begin
     id 24 
     name rclavicle
     direction -0.947962 0.317997 0.0156638   
     length 4.86918  
     axis 0 -0 0   XYZ 
    dof ry rz
    limits (-10.0 20.0)
           (-20.0 0.0)
  end
  begin
     id 25 
     name rhumerus
     direction -1 -4.48951e-011 2.80534e-018  
     length 5.60911   
     axis 180 30 90   XYZ
    dof rx ry rz
    limits (-90.0 60.0)
           (-90.0 90.0)
           (-90.0 90.0)
  end
  begin
     id 26 
     name rradius
     direction -1 -4.4898e-011 2.11315e-027   
     length 3.38704   
     axis 180 30 90   XYZ
    dof rx
    limits (-10.0 170.0)
  end
  begin
     id 27 
     name rwrist
     direction -1 -4.48933e-011 7.02314e-027   
     length 1.69352   
     axis -4.37994e-015 -90 -90   XYZ
    dof ry
    limits (-180.0 0.0)
  end
  begin
     id 28
     name rhand
     direction -1 -4.48937e-011 1.40458e-026   
     length 0.755878   
     axis -8.96029e-015 -90 -90   XYZ
    dof rx rz
    limits (-90.0 90.0)
           (-45.0 45.0)
  end
  begin
     id 29
     name rfingers
     direction -1 -4.4901e-011 2.80737e-026   
     length 0.609409   
     axis -1.79203e-014 -90 -90   XYZ
    dof rx
    limits (0.0 90.0)
  end
  begin
     id 30
     name rthumb
     direction -0.707107 -6.34968e-011 0.707107   
     length 0.874992   
     axis -90 -45 4.48555e-014   XYZ
    dof rx rz
    limits (-45.0 45.0)
           (-45.0 45.0)
  end
:hierarchy
  begin
    root lhipjoint rhipjoint lowerback
    lhipjoint lfemur
    lfemur ltibia
    ltibia lfoot
    lfoot ltoes
    rhipjoint rfemur
    rfemur rtibia
    rtibia rfoot
    rfoot rtoes
    lowerback upperback
    upperback thorax
    thorax lowerneck lclavicle rclavicle
    lowerneck upperneck
    upperneck head
    lclavicle lhumerus
    lhumerus lradius
    lradius lwrist
    lwrist lhand lthumb
    lhand lfingers
    rclavicle rhumerus
    rhumerus rradius
    rradius rwrist
    rwrist rhand rthumb
    rhand rfingers
  end

#!OML:ASF C:\ViconDB\ViconDB\414\Spring2016\041811\Spring2016.ASF
:FULLY-SPECIFIED
:DEGREES
140
root 8.51454 14.3433 -6.79137 -166.069 0.191905 -178.769
lowerback 29.5448 -0.563292 -1.54256
upperback 4.43316 -0.0451648 0.38941
thorax -11.315 0.509326 1.26396
lowerneck -12.6829 -6.88525 -14.2654
upperneck -7.46386 -5.83177 22.7457
head 1.28554 -1.73366 9.24224
rclavicle -1.49089e-015 -2.98177e-015
rhumerus -34.1122 1.02037 -87.1777
rradius 64.1901
rwrist 10.3086
rhand -44.7451 -19.0974
rfingers 7.12502
rthumb -17.5384 -48.3263
lclavicle -1.49089e-015 -2.98177e-015
lhumerus -27.8123 -6.5181 81.7303
lradius 61.1259
lwrist -3.10595
lhand -34.5842 15.8507
lfingers 7.12502
lthumb -7.74343 45.6889
rfemur -57.2547 -19.4182 22.6451
rtibia 87.9865
rfoot 5.51292 -18.6371
rtoes -1.53067
lfemur -63.7275 14.0235 -15.2174
ltibia 90.4091
lfoot -36.2836 -4.24635
ltoes -19.1799
141
root 8.49446 14.4348 -7.00858 -166.098 0.103038 -179.091
lowerback 29.0178 -0.636067 -1.66447
upperback 4.38052 -0.220504 0.253564
thorax -11.1018 0.415706 1.24729
lowerneck -12.7736 -6.90152 -14.2515
upperneck -7.32857 -5.86664 22.8188
head 1.34942 -1.74176 9.25956
rclavicle -1.26228e-014 3.77691e-015
rhumerus -32.7526 3.41972 -86.3395
rradius 68.7236
rwrist 9.48459
rhand -44.7739 -19.7378
rfingers 7.12502
rthumb -17.5661 -48.9642
lclavicle -1.26228e-014 3.77691e-015
lhumerus -26.9516 -6.88766 79.866
lradius 65.5764
lwrist -2.9561
lhand -34.3397 15.6863
lfingers 7.12502
lthumb -7.50742 45.5331
rfemur -55.3633 -19.5344 21.906
rtibia 86.7352
rfoot 5.89152 -18.6287
rtoes -1.32446
lfemur -61.8857 13.5715 -15.6094
ltibia 89.3661
lfoot -37.0647 -2.83972
ltoes -20.171
142
root 8.47837 14.5413 -7.22781 -166.029 0.166483 -179.3
lowerback 28.3595 -0.606514 -1.80755
upperback 4.27423 -0.279905 0.143449
thorax -10.8859 0.369709 1.22863
lowerneck -12.7919 -7.04932 -14.6375
upperneck -7.2524 -6.01608 23.4171
head 1.4556 -1.78704 9.52394
rclavicle 1.78906e-015 -1.15295e-014
rhumerus -31.2838 5.59729 -85.2435
rradius 73.5863
rwrist 7.6996
rhand -45.4848 -19.2334
rfingers 7.12502
rthumb -18.2501 -48.3972
lclavicle 1.78906e-015 -1.15295e-014
lhumerus -25.9041 -7.1058 77.7938
lradius 70.2187
lwrist -2.67273
lhand -34.1925 15.6726
lfingers 7.12502
lthumb -7.36542 45.5244
rfemur -53.5019 -19.4669 21.3621
rtibia 85.23
rfoot 6.19293 -18.4622
rtoes -1.10372
lfemur -60.0713 13.2804 -15.7938
ltibia 88.1222
lfoot -37.5197 -2.21578
ltoes -20.6939
143
root 8.46389 14.6747 -7.4601 -166.053 0.114271 -179.522
lowerback 27.7328 -0.638106 -1.97894
upperback 4.10081 -0.431679 0.0681647
thorax -10.7569 0.279991 1.29921
lowerneck -12.8475 -7.09374 -14.8329
upperneck -6.94695 -6.10794 23.7235
head 1.59592 -1.81849 9.65531
rclavicle 2.78299e-015 7.95139e-016
rhumerus -29.7271 7.27542 -83.6261
rradius 78.5317
rwrist 7.07753
rhand -45.1267 -18.5219
rfingers 7.12502
rthumb -17.9055 -47.7176
lclavicle 2.78299e-015 7.95139e-016
lhumerus -24.8032 -6.77251 75.5577
lradius 74.9358
lwrist -2.01889
lhand -34.1697 15.3831
lfingers 7.12502
lthumb -7.34333 45.2357
rfemur -51.2837 -19.4766 20.7777
rtibia 83.423
rfoot 6.47083 -18.1894
rtoes -0.886058
lfemur -57.8977 12.8816 -15.8991
ltibia 86.5287
lfoot -37.8437 -1.95622
ltoes -20.8853
144
root 8.45137 14.8237 -7.70367 -166.133 -0.0027169 -179.717
lowerback 27.0655 -0.665097 -2.11928
upperback 3.90736 -0.565683 0.0148461
thorax -10.6277 0.196381 1.36838
lowerneck -12.5861 -7.20514 -14.8907
upperneck -6.94216 -6.3078 23.823
head 1.60192 -1.9383 9.68425
rclavicle -1.59028e-015 4.96962e-015
rhumerus -28.0409 9.08586 -81.7159
rradius 83.2758
rwrist 6.36757
rhand -45.5841 -17.9618
rfingers 7.12502
rthumb -18.3456 -47.1167
lclavicle -1.59028e-015 4.96962e-015
lhumerus -23.5069 -6.32266 73.2456
lradius 79.6813
lwrist -0.831834
lhand -34.0365 15.0394
lfingers 7.12502
lthumb -7.21483 44.8964
rfemur -48.7971 -19.5583 20.2225
rtibia 81.3298
rfoot 6.57833 -17.9109
rtoes -0.660274
lfemur -55.5442 12.5571 -15.9869
ltibia 84.6937
lfoot -38.0823 -1.64038
ltoes -21.3554
145
root 8.44094 14.9891 -7.96426 -166.141 -0.115138 -179.873
lowerback 26.1759 0.310169 -1.79889
upperback 3.64298 -0.936196 0.0480406
thorax -10.4812 -0.711537 1.47614
lowerneck -12.8806 -7.20496 -15.1138
upperneck -6.20973 -6.39903 24.0851
head 1.90016 -1.95435 9.80012
rclavicle 1.39149e-015 1.59028e-015
rhumerus -26.2375 10.3352 -79.5613
rradius 88.041
rwrist 6.14532
rhand -45.9763 -18.3172
rfingers 7.12502
rthumb -18.7229 -47.4361
lclavicle 1.39149e-015 1.59028e-015
lhumerus -22.1174 -5.66184 70.8237
lradius 84.1393
lwrist 0.110603
lhand -33.8953 14.7481
lfingers 7.12502
lthumb -7.07847 44.6097
rfemur -46.2232 -19.5218 19.7338
rtibia 78.9912
rfoot 6.63606 -17.502
rtoes -0.435149
lfemur -53.0824 12.2151 -16.033
ltibia 82.6024
lfoot -38.1605 -1.39253
ltoes -21.5997
